<mxfile host="app.diagrams.net" modified="2023-09-20T18:18:11.857Z" agent="Mozilla/5.0 (Windows NT 10.0; Win64; x64) AppleWebKit/537.36 (KHTML, like Gecko) Chrome/116.0.0.0 Safari/537.36" etag="rsfc7Wy87R_4_LYtWq-7" version="21.8.0" type="device">
  <diagram name="Page-1" id="3UXAvT__bxl20IlCDWK9">
    <mxGraphModel dx="908" dy="1134" grid="0" gridSize="10" guides="1" tooltips="1" connect="1" arrows="1" fold="1" page="1" pageScale="1" pageWidth="850" pageHeight="1100" background="#006600" math="0" shadow="1">
      <root>
        <mxCell id="0" />
        <mxCell id="1" parent="0" />
        <mxCell id="2" value="A" style="rounded=1;absoluteArcSize=1;arcSize=14;whiteSpace=wrap;strokeWidth=2;labelBorderColor=none;" parent="1" vertex="1">
          <mxGeometry x="111" y="5" width="26" height="26" as="geometry" />
        </mxCell>
        <mxCell id="3" value="B" style="rounded=1;absoluteArcSize=1;arcSize=14;whiteSpace=wrap;strokeWidth=2;" parent="1" vertex="1">
          <mxGeometry x="37" y="85" width="24" height="35" as="geometry" />
        </mxCell>
        <mxCell id="4" value="C" style="rounded=1;absoluteArcSize=1;arcSize=14;whiteSpace=wrap;strokeWidth=2;" parent="1" vertex="1">
          <mxGeometry x="185" y="85" width="25" height="35" as="geometry" />
        </mxCell>
        <mxCell id="5" value="D" style="rounded=1;absoluteArcSize=1;arcSize=14;whiteSpace=wrap;strokeWidth=2;" parent="1" vertex="1">
          <mxGeometry y="169" width="25" height="35" as="geometry" />
        </mxCell>
        <mxCell id="6" value="E" style="rounded=1;absoluteArcSize=1;arcSize=14;whiteSpace=wrap;strokeWidth=2;" parent="1" vertex="1">
          <mxGeometry x="111" y="210" width="23" height="35" as="geometry" />
        </mxCell>
        <mxCell id="9" value="" style="curved=1;startArrow=none;endArrow=block;exitX=0.011999969482421874;exitY=0.6951698631579251;entryX=0.524999996026357;entryY=-0.011428615025111607;" parent="1" source="2" target="3" edge="1">
          <mxGeometry relative="1" as="geometry">
            <Array as="points">
              <mxPoint x="50" y="60" />
            </Array>
          </mxGeometry>
        </mxCell>
        <mxCell id="10" value="" style="curved=1;startArrow=none;endArrow=block;exitX=0.995999984741211;exitY=0.6957142641873864;entryX=0.4959999656677246;entryY=-0.011428615025111607;" parent="1" source="2" target="4" edge="1">
          <mxGeometry relative="1" as="geometry">
            <Array as="points">
              <mxPoint x="197" y="60" />
            </Array>
          </mxGeometry>
        </mxCell>
        <mxCell id="11" value="" style="curved=1;startArrow=none;endArrow=block;exitX=0.020833313465118408;exitY=0.8770272801733735;entryX=0.5;entryY=0.005714198521205357;" parent="1" source="3" target="5" edge="1">
          <mxGeometry relative="1" as="geometry">
            <Array as="points">
              <mxPoint x="13" y="144" />
            </Array>
          </mxGeometry>
        </mxCell>
        <mxCell id="otsVkUJixL1YfQv129F8-16" value="" style="curved=1;startArrow=none;endArrow=block;exitX=0.011999969482421874;exitY=0.6951698631579251;entryX=0.5;entryY=0;entryDx=0;entryDy=0;" edge="1" parent="1" target="6">
          <mxGeometry relative="1" as="geometry">
            <Array as="points">
              <mxPoint x="130" y="157" />
            </Array>
            <mxPoint x="191" y="120" as="sourcePoint" />
            <mxPoint x="130" y="182" as="targetPoint" />
          </mxGeometry>
        </mxCell>
        <mxCell id="otsVkUJixL1YfQv129F8-18" value="F" style="rounded=1;absoluteArcSize=1;arcSize=14;whiteSpace=wrap;strokeWidth=2;" vertex="1" parent="1">
          <mxGeometry x="37" y="276" width="23" height="35" as="geometry" />
        </mxCell>
        <mxCell id="otsVkUJixL1YfQv129F8-19" value="" style="curved=1;startArrow=none;endArrow=block;exitX=-0.074;exitY=0.808;entryX=0.79;entryY=0.007;entryDx=0;entryDy=0;exitDx=0;exitDy=0;exitPerimeter=0;entryPerimeter=0;" edge="1" parent="1" source="6" target="otsVkUJixL1YfQv129F8-18">
          <mxGeometry relative="1" as="geometry">
            <Array as="points">
              <mxPoint x="76" y="253" />
            </Array>
            <mxPoint x="104" y="238.99999999999977" as="sourcePoint" />
            <mxPoint x="53" y="278.75" as="targetPoint" />
          </mxGeometry>
        </mxCell>
        <mxCell id="otsVkUJixL1YfQv129F8-21" value="" style="shape=waypoint;sketch=0;size=6;pointerEvents=1;points=[];fillColor=none;resizable=0;rotatable=0;perimeter=centerPerimeter;snapToPoint=1;" vertex="1" parent="1">
          <mxGeometry x="-595" y="120" width="20" height="20" as="geometry" />
        </mxCell>
        <mxCell id="otsVkUJixL1YfQv129F8-22" value="G" style="rounded=1;absoluteArcSize=1;arcSize=14;whiteSpace=wrap;strokeWidth=2;" vertex="1" parent="1">
          <mxGeometry x="114" y="358" width="23" height="35" as="geometry" />
        </mxCell>
        <mxCell id="otsVkUJixL1YfQv129F8-23" value="H" style="rounded=1;absoluteArcSize=1;arcSize=14;whiteSpace=wrap;strokeWidth=2;" vertex="1" parent="1">
          <mxGeometry x="112.5" y="428" width="23" height="35" as="geometry" />
        </mxCell>
        <mxCell id="otsVkUJixL1YfQv129F8-25" value="Text" style="text;html=1;align=center;verticalAlign=middle;resizable=0;points=[];autosize=1;strokeColor=none;fillColor=none;" vertex="1" parent="1">
          <mxGeometry x="405" y="-313" width="40" height="26" as="geometry" />
        </mxCell>
        <mxCell id="otsVkUJixL1YfQv129F8-26" value="" style="curved=1;startArrow=none;endArrow=block;exitX=1;exitY=0.75;entryX=0.5;entryY=0;entryDx=0;entryDy=0;exitDx=0;exitDy=0;" edge="1" parent="1" source="otsVkUJixL1YfQv129F8-18" target="otsVkUJixL1YfQv129F8-22">
          <mxGeometry relative="1" as="geometry">
            <Array as="points">
              <mxPoint x="121" y="331" />
            </Array>
            <mxPoint x="61" y="294" as="sourcePoint" />
            <mxPoint x="121" y="356" as="targetPoint" />
          </mxGeometry>
        </mxCell>
      </root>
    </mxGraphModel>
  </diagram>
</mxfile>
